<svg xmlns="http://www.w3.org/2000/svg" xmlns:xlink="http://www.w3.org/1999/xlink"
  viewBox="0 0 24 24" version="1.1">
  <g transform="rotate(90 12 12)">
    <path fill-opacity=".3"
      d="M15.67 4H14V3c0-.55-.45-1-1-1h-2c-.55 0-1 .45-1 1v1H8.33C7.6 4 7 4.6 7 5.33V14h2.43a.5.5 0 0 1-.07-.57l2.67-5c.24-.45.94-.28.94.24V12h1.17c.38 0 .62.4.44.74l-.28.52H17V5.33C17 4.6 16.4 4 15.67 4z"
      ></path>
    <path
      d="M11.94 18.24c-.24.45-.94.28-.94-.24v-3.5H7v6.17C7 21.4 7.6 22 8.33 22h7.33c.74 0 1.34-.6 1.34-1.33V14H13v1.5h1.17c.38 0 .62.4.44.74l-2.67 5z"
      ></path>
  </g>
</svg>
