<svg fill="" height="24px" width="24px" version="1.1" id="Layer_1"
  xmlns="http://www.w3.org/2000/svg" xmlns:xlink="http://www.w3.org/1999/xlink"
  viewBox="0 0 512.00 512.00" xml:space="preserve" transform="rotate(0)"><g id="SVGRepo_bgCarrier" stroke-width="0"></g><g id="SVGRepo_tracerCarrier" stroke-linecap="round" stroke-linejoin="round"></g><g id="SVGRepo_iconCarrier"> <g> <g> <path d="M395.636,465.455h-71.959c-4.817-13.51-17.617-23.273-32.768-23.273h-23.273v-34.909c0-6.423-5.201-11.636-11.636-11.636 c-6.435,0-11.636,5.213-11.636,11.636v34.909h-23.273c-15.151,0-27.951,9.763-32.768,23.273h-71.959 c-6.435,0-11.636,5.213-11.636,11.636c0,6.423,5.201,11.636,11.636,11.636h71.959C193.14,502.237,205.94,512,221.091,512h69.818 c15.151,0,27.951-9.763,32.768-23.273h71.959c6.435,0,11.636-5.213,11.636-11.636 C407.273,470.668,402.071,465.455,395.636,465.455z M290.909,488.727h-69.818c-6.423,0-11.636-5.225-11.636-11.636 s5.213-11.636,11.636-11.636h69.818c6.423,0,11.636,5.225,11.636,11.636S297.332,488.727,290.909,488.727z"></path> </g> </g> <g> <g> <circle cx="256" cy="267.636" r="11.636"></circle> </g> </g> <g> <g> <path d="M442.182,0H69.818C50.572,0,34.909,15.651,34.909,34.909v244.364c0,19.247,15.663,34.909,34.909,34.909h104.727 c6.435,0,11.636-5.213,11.636-11.636s-5.201-11.636-11.636-11.636H69.818c-6.423,0-11.636-5.225-11.636-11.636V34.909 c0-6.412,5.213-11.636,11.636-11.636h372.364c6.423,0,11.636,5.225,11.636,11.636v244.364c0,6.412-5.213,11.636-11.636,11.636 H221.091c-6.435,0-11.636,5.213-11.636,11.636v46.545h-11.636c-6.435,0-11.636,5.213-11.636,11.636s5.201,11.636,11.636,11.636 h116.364c6.435,0,11.636-5.213,11.636-11.636s-5.201-11.636-11.636-11.636h-11.636v-34.909h139.636 c19.247,0,34.909-15.663,34.909-34.909V34.909C477.091,15.651,461.428,0,442.182,0z M279.273,349.091h-46.545v-34.909h46.545 V349.091z"></path> </g> </g> <g> <g> <path d="M418.909,221.091H93.091c-6.435,0-11.636,5.213-11.636,11.636s5.201,11.636,11.636,11.636h325.818 c6.435,0,11.636-5.213,11.636-11.636S425.344,221.091,418.909,221.091z"></path> </g> </g> </g></svg>
